# xmcd
# Track frame offsets:
# 150
# 15814
# 36595
# 57497
# 73717
# 91196
# 121417
# 138113
# 155075
# 175868
#
# Disc length: 2650 seconds
# Revision: 0
# Processed by: cddbd v1.5.1PL0 Copyright (c) Steve Scherf et al.
# Submitted via: VisiTrax 2.9.9.202 - For more info visit www.synapsa.com
#
DISCID=810a580a
DTITLE=KIngSize Band - KIngSize Band
DYEAR=1995
DGENRE=Bluesrock
TTITLE0=Demo
TTITLE1=Demo
TTITLE2=Demo
TTITLE3=Demo
TTITLE4=Demo
TTITLE5=Demo
TTITLE6=Demo
TTITLE7=Demo
TTITLE8=Demo
TTITLE9=Demo
EXTD=
EXTT0=
EXTT1=
EXTT2=
EXTT3=
EXTT4=
EXTT5=
EXTT6=
EXTT7=
EXTT8=
EXTT9=
PLAYORDER=
